<svg xmlns="http://www.w3.org/2000/svg" width="29" height="54" viewBox="0 0 29 54">
  <g fill="#EFEFEF" fill-rule="evenodd" transform="translate(0 13)">
    <path d="M18.0108592,1.12208046 L27.9440669,11.3084584 C28.6210772,12.0027239 29,12.9340541 29,13.9037692 L29,34.2826087 C29,36.3356672 27.3770322,38 25.375,38 L3.625,38 C1.62296778,38 2.93457388e-16,36.3356672 0,34.2826087 L0,3.7173913 C-2.44547823e-16,1.66433278 1.62296778,3.86918758e-16 3.625,0 L15.349401,3.55271368e-15 C16.351533,3.36862501e-15 17.3112169,0.404606196 18.0108592,1.12208046 Z M13,3 L3.74193548,3 C3.07459141,3 3,3.03303846 3,3.7173913 L3,34.2826087 C3,34.9669615 3.07459141,35 3.74193548,35 L25,35 C25.6673441,35 26,34.9669615 26,34.2826087 L26,16 L17.3064516,16 C15.3044194,16 13,14.4443629 13,12.3913043 L13,3 Z M26.1935484,13 L16,3 L16,12 C16,12.6843528 16.6391075,13 17.3064516,13 L26.1935484,13 Z"/>
    <rect width="13" height="3" x="8" y="29" rx="1.5"/>
    <rect width="13" height="3" x="8" y="23" rx="1.5"/>
  </g>
</svg>
